<svg width="160" height="70" viewBox="0 0 171 90" fill="none" xmlns="http://www.w3.org/2000/svg">
<path d="M99.9248 46.1151C99.9248 44.6564 100.195 43.2897 100.735 42.0145C101.275 40.7395 102.021 39.6287 102.973 38.6821C103.925 37.7357 105.05 36.9896 106.347 36.4438C107.644 35.8984 109.056 35.6254 110.582 35.6254C111.617 35.6254 112.502 35.7089 113.237 35.8759C113.972 36.0429 114.574 36.2295 115.041 36.4355C115.509 36.6417 115.852 36.8309 116.069 37.0034C116.286 37.1761 116.394 37.2681 116.394 37.279C116.394 37.3458 116.369 37.5324 116.319 37.8385C116.269 38.1449 116.213 38.5012 116.152 38.9076C116.091 39.3142 116.035 39.7318 115.985 40.1604C115.935 40.5892 115.91 40.9595 115.91 41.2712C115.91 41.327 115.893 41.3881 115.86 41.4549C115.826 41.5217 115.737 41.5551 115.593 41.5551C115.459 41.5551 115.264 41.5078 115.008 41.4131C114.752 41.3187 114.437 41.2156 114.064 41.1041C113.691 40.9929 113.263 40.8898 112.778 40.7951C112.294 40.7006 111.756 40.6531 111.166 40.6531C110.431 40.6531 109.769 40.7841 109.179 41.0457C108.588 41.3074 108.082 41.6694 107.658 42.1314C107.235 42.5936 106.91 43.1419 106.681 43.7766C106.453 44.4114 106.339 45.0963 106.339 45.8312C106.339 46.5995 106.458 47.2538 106.698 47.7938C106.937 48.3341 107.258 48.7739 107.658 49.1134C108.059 49.4533 108.521 49.7009 109.045 49.8567C109.568 50.0128 110.119 50.0906 110.699 50.0906C111.367 50.0906 112.04 49.9987 112.72 49.815C113.399 49.6313 114.039 49.3723 114.64 49.0383C114.663 49.0273 114.707 49.0215 114.774 49.0215C114.83 49.0215 114.872 49.0495 114.899 49.1051C114.927 49.161 114.941 49.2666 114.941 49.4224C114.941 49.7789 114.941 50.2104 114.941 50.717C114.941 51.2238 114.938 51.7082 114.933 52.1702C114.927 52.6324 114.919 53.0249 114.908 53.3478C114.897 53.6709 114.885 53.8322 114.874 53.8322C114.474 54.0994 114.039 54.3166 113.572 54.4836C113.104 54.6506 112.622 54.7843 112.127 54.8845C111.631 54.9847 111.133 55.0515 110.632 55.0849C110.131 55.1183 109.646 55.135 109.179 55.135C107.876 55.135 106.662 54.9179 105.537 54.4836C104.412 54.0493 103.435 53.437 102.606 52.6462C101.776 51.8557 101.122 50.9065 100.643 49.7982C100.164 48.6904 99.9248 47.4627 99.9248 46.1151Z" fill="#FF4936"/>
<path d="M134.902 50.9091C134.89 50.9537 134.885 50.9955 134.885 51.0344C134.885 51.0735 134.885 51.1095 134.885 51.143C134.885 51.4214 134.929 51.6524 135.019 51.8361C135.108 52.0198 135.205 52.1702 135.311 52.2871C135.417 52.4041 135.514 52.4988 135.603 52.5711C135.692 52.6437 135.737 52.7076 135.737 52.7632C135.737 52.9192 135.57 53.0638 135.236 53.1975L130.742 55.1184C130.731 55.1293 130.692 55.135 130.626 55.135C130.536 55.135 130.447 55.057 130.358 54.9012C130.269 54.7451 130.183 54.5476 130.099 54.3082C130.016 54.0689 129.938 53.8129 129.865 53.5399C129.793 53.2671 129.729 53.0137 129.673 52.7799C128.972 53.5929 128.214 54.1887 127.402 54.5672C126.589 54.9456 125.781 55.135 124.98 55.135C124.044 55.135 123.131 54.9289 122.24 54.517C121.349 54.1052 120.559 53.5177 119.868 52.7548C119.178 51.9922 118.624 51.0706 118.206 49.9904C117.789 48.9104 117.58 47.6965 117.58 46.3491C117.58 44.7567 117.811 43.3035 118.273 41.9894C118.735 40.6756 119.362 39.5452 120.152 38.5986C120.943 37.6522 121.865 36.9199 122.917 36.4021C123.969 35.8843 125.085 35.6254 126.266 35.6254C127.101 35.6254 127.892 35.7953 128.638 36.1349C129.384 36.4747 130.091 36.9116 130.759 37.446C130.826 37.112 130.865 36.8447 130.876 36.6443C130.887 36.4438 130.912 36.288 130.951 36.1766C130.99 36.0654 131.065 35.9902 131.177 35.9511C131.288 35.9122 131.472 35.8817 131.728 35.8592C132.53 35.748 133.329 35.645 134.125 35.5502C134.921 35.4557 135.753 35.386 136.622 35.3414L134.902 50.9091ZM129.907 44.6119C130.018 43.9771 130.094 43.3787 130.133 42.8162C130.172 42.254 130.202 41.7389 130.225 41.2712C130.046 41.1375 129.854 40.9984 129.648 40.8536C129.442 40.709 129.22 40.5725 128.98 40.4444C128.741 40.3165 128.49 40.2134 128.229 40.1353C127.967 40.0575 127.691 40.0184 127.402 40.0184C126.8 40.0184 126.296 40.2134 125.89 40.603C125.483 40.9929 125.155 41.4716 124.905 42.0395C124.654 42.6074 124.476 43.2087 124.37 43.8435C124.264 44.4782 124.211 45.0407 124.211 45.5306C124.211 47.2902 124.442 48.579 124.905 49.3974C125.367 50.2159 126.01 50.6251 126.834 50.6251C127.168 50.6251 127.541 50.5307 127.953 50.3411C128.365 50.1519 128.782 49.8902 129.206 49.5561L129.907 44.6119Z" fill="#FF4936"/>
<path d="M138.777 49.6563C138.777 49.6453 138.774 49.637 138.769 49.6313C138.763 49.6258 138.76 49.6174 138.76 49.6062C138.76 49.4616 138.838 49.389 138.994 49.389C139.094 49.389 139.183 49.4282 139.261 49.5059C139.707 49.9293 140.216 50.2743 140.79 50.5416C141.363 50.8088 141.984 50.9425 142.652 50.9425C142.83 50.9425 143.036 50.9231 143.27 50.884C143.504 50.8451 143.727 50.7812 143.938 50.6919C144.15 50.6029 144.325 50.4831 144.464 50.3328C144.604 50.1825 144.673 49.9961 144.673 49.7732C144.673 49.5284 144.612 49.3029 144.489 49.0967C144.367 48.8908 144.205 48.7209 144.005 48.5873C143.894 48.5095 143.699 48.373 143.42 48.1781C143.142 47.9833 142.844 47.7745 142.527 47.5517C142.209 47.329 141.909 47.1173 141.625 46.9169C141.341 46.7165 141.143 46.5719 141.032 46.4826C140.531 46.1042 140.132 45.72 139.837 45.3301C139.542 44.9404 139.317 44.5367 139.161 44.1191C139.005 43.7015 138.905 43.2646 138.86 42.8078C138.816 42.3514 138.794 41.867 138.794 41.3546C138.794 40.5753 138.999 39.8404 139.412 39.1498C139.823 38.4595 140.366 37.8526 141.04 37.3291C141.714 36.8058 142.479 36.3911 143.337 36.0847C144.194 35.7785 145.068 35.6254 145.959 35.6254C146.694 35.6254 147.418 35.7368 148.131 35.9594C148.843 36.1823 149.506 36.5607 150.119 37.0952C150.174 37.7968 150.213 38.4874 150.236 39.1665C150.258 39.8459 150.291 40.5586 150.336 41.3046C150.336 41.4494 150.302 41.5467 150.236 41.5969C150.169 41.647 150.091 41.672 150.002 41.672C149.924 41.672 149.857 41.6443 149.801 41.5885C149.545 41.3437 149.283 41.1015 149.016 40.8619C148.749 40.6226 148.468 40.4109 148.173 40.2272C147.877 40.0435 147.563 39.8931 147.229 39.7762C146.895 39.6592 146.538 39.6008 146.16 39.6008C145.926 39.6008 145.692 39.6204 145.458 39.6592C145.224 39.6984 145.013 39.7707 144.823 39.8764C144.634 39.9824 144.481 40.1243 144.364 40.3024C144.247 40.4806 144.189 40.7089 144.189 40.9872C144.189 41.3103 144.228 41.5885 144.306 41.8224C144.384 42.0562 144.567 42.2845 144.857 42.5072L147.964 44.6119C148.532 45.0018 148.991 45.3831 149.342 45.756C149.693 46.1292 149.968 46.4993 150.169 46.8668C150.369 47.2343 150.505 47.5992 150.578 47.9609C150.65 48.3229 150.686 48.682 150.686 49.0383C150.686 50.0405 150.455 50.9231 149.993 51.6858C149.531 52.4487 148.933 53.0834 148.198 53.5899C147.463 54.0968 146.63 54.4807 145.7 54.7425C144.771 55.004 143.838 55.135 142.903 55.135C142.19 55.135 141.502 55.0599 140.84 54.9096C140.177 54.7592 139.562 54.528 138.994 54.2163L138.777 49.6563Z" fill="#FF4936"/>
<path d="M163.031 35.6254C164.088 35.6254 165.049 35.8232 165.912 36.2183C166.775 36.6138 167.515 37.1261 168.133 37.755C168.751 38.3843 169.228 39.0887 169.562 39.868C169.896 40.6476 170.063 41.4272 170.063 42.2065C170.063 42.8971 169.851 43.5903 169.428 44.2861C169.005 44.9822 168.412 45.6086 167.649 46.1653C166.886 46.7222 165.97 47.1732 164.901 47.5182C163.832 47.8635 162.657 48.0361 161.377 48.0361C160.709 48.0361 160.007 47.9692 159.272 47.8356C159.317 48.3146 159.456 48.7266 159.69 49.0717C159.924 49.4169 160.219 49.7009 160.575 49.9236C160.931 50.1464 161.335 50.3106 161.786 50.4163C162.237 50.5223 162.702 50.575 163.181 50.575C163.715 50.575 164.23 50.5277 164.726 50.433C165.221 50.3385 165.697 50.2132 166.154 50.0571C166.611 49.9013 167.05 49.7288 167.474 49.5393C167.897 49.3502 168.298 49.161 168.676 48.9714C168.777 48.9493 168.863 48.9297 168.935 48.913C169.007 48.8963 169.077 48.8879 169.144 48.8879C169.133 49.2444 169.127 49.584 169.127 49.9068C169.127 50.23 169.124 50.6196 169.119 51.0761C169.113 51.5328 169.105 52.0394 169.094 52.5961C169.127 52.652 169.15 52.7076 169.161 52.7631C169.172 52.819 169.177 52.8634 169.177 52.8968C169.177 53.0304 169.055 53.1752 168.81 53.331C168.565 53.4871 168.245 53.6484 167.849 53.8155C167.454 53.9825 167.003 54.1441 166.497 54.2999C165.99 54.4557 165.475 54.5976 164.951 54.7258C164.428 54.8537 163.921 54.9539 163.431 55.0265C162.941 55.0988 162.513 55.135 162.145 55.135C160.943 55.135 159.776 54.9262 158.646 54.5086C157.516 54.0911 156.513 53.4926 155.639 52.7131C154.765 51.9337 154.066 50.9871 153.543 49.8734C153.019 48.76 152.758 47.5073 152.758 46.1151C152.758 44.6564 153.008 43.2897 153.509 42.0145C154.011 40.7395 154.715 39.6287 155.622 38.6821C156.53 37.7357 157.613 36.9896 158.871 36.4438C160.13 35.8984 161.516 35.6254 163.031 35.6254ZM162.83 40.0685C162.373 40.0685 161.953 40.1661 161.569 40.3608C161.185 40.5558 160.834 40.8342 160.517 41.196C160.199 41.558 159.924 41.9923 159.69 42.4989C159.456 43.0057 159.267 43.5652 159.122 44.1775C160.269 43.9771 161.221 43.7657 161.978 43.5428C162.735 43.3202 163.342 43.0947 163.799 42.8663C164.255 42.6382 164.578 42.4099 164.768 42.1814C164.957 41.9534 165.052 41.7334 165.052 41.5217C165.052 41.3212 164.976 41.132 164.826 40.9537C164.676 40.7758 164.489 40.6197 164.267 40.4861C164.044 40.3524 163.801 40.2496 163.54 40.177C163.278 40.1048 163.042 40.0685 162.83 40.0685Z" fill="#FF4936"/>
<path d="M83.9697 53.8338L87.8593 88.4641L1.89534 76.4985L10.017 42.6063L9.35794 39.9485L0.346191 77.5552L89.2928 89.9361L85.1934 53.4382C85.1816 53.4415 85.1709 53.4446 85.1588 53.448L83.9697 53.8338Z" fill="#A3A29C"/>
<path d="M85.4455 28.8339L87.2751 7.98352L80.1836 8.83424L82.5086 29.5342L85.4455 28.8339Z" fill="#FF4936"/>
<path d="M80.1838 8.83426L79.2015 0.0883789L17.2696 6.93351L14.9385 16.6614L16.2728 16.5013L18.2887 8.08883L78.0895 1.47921L78.9324 8.98439L81.2888 29.9641C81.3005 29.9496 81.3115 29.9351 81.3255 29.9211C81.4091 29.8376 81.6012 29.7569 81.9018 29.6789L82.5088 29.5342L80.1838 8.83426Z" fill="#A3A29C"/>
<path d="M98.6304 52.9887C98.5802 52.9611 98.5243 52.936 98.4633 52.9136C98.4019 52.8914 98.338 52.8663 98.2712 52.8384C98.2043 52.8107 98.1543 52.769 98.1208 52.7131L93.9115 48.1865L91.4729 45.28C91.8625 44.8682 92.2162 44.4924 92.5336 44.1526C92.8509 43.813 93.1266 43.5152 93.3604 43.2589L98.5885 37.4127C98.8224 37.1454 98.9394 36.9729 98.9394 36.8949C98.9394 36.7947 98.8446 36.7446 98.6554 36.7446C98.622 36.7446 98.5857 36.7446 98.5468 36.7446C98.5076 36.7446 98.4716 36.7503 98.4383 36.7612L91.7234 37.229C91.7009 37.2514 91.6341 37.3321 91.523 37.4711C91.4116 37.6105 91.2667 37.7831 91.0887 37.9889C90.9105 38.1951 90.71 38.4316 90.4873 38.6988C90.2644 38.9661 90.0363 39.2334 89.8025 39.5006L87.9318 41.6888L86.7791 42.9583C86.8236 42.5574 86.8794 42.0453 86.9462 41.4215C87.013 40.798 87.0854 40.1187 87.1634 39.3837C87.2411 38.6488 87.322 37.8804 87.4056 37.0786C87.489 36.2769 87.5697 35.4863 87.6478 34.7067L88.2491 28.9106C88.2491 28.8884 88.2518 28.8662 88.2575 28.8438C88.263 28.8216 88.2659 28.7994 88.2659 28.777C88.2659 28.5878 88.2016 28.4596 88.0736 28.3928C87.9455 28.326 87.809 28.2926 87.6645 28.2926C87.4749 28.2926 87.2803 28.3317 87.0799 28.4095C86.8794 28.4876 86.7178 28.5376 86.5954 28.5598L85.4456 28.834L85.4156 29.1769L84.123 43.9069L83.5668 50.2457L83.231 54.0735L83.9698 53.8338L85.1589 53.448C85.1711 53.4447 85.1818 53.4415 85.1936 53.4382C85.4957 53.3536 85.6883 53.2816 85.7686 53.2225C85.8522 53.1615 85.8939 53.0696 85.8939 52.947C85.8939 52.9026 85.891 52.8551 85.8855 52.805C85.8798 52.7549 85.8771 52.6909 85.8771 52.6129C85.8771 52.5685 85.8881 52.4433 85.9106 52.2371C85.9328 52.0311 85.9579 51.7861 85.9858 51.5021C86.0134 51.2181 86.0443 50.9149 86.0776 50.5917C86.1111 50.2689 86.1416 49.9654 86.1695 49.6814C86.1971 49.3974 86.2222 49.1526 86.2447 48.9465C86.2668 48.7406 86.2781 48.6153 86.2781 48.5706C86.2781 48.4595 86.2948 48.3731 86.3282 48.3117C86.3616 48.2507 86.4033 48.1977 86.4534 48.1531C86.5036 48.1087 86.5563 48.0724 86.6122 48.0445C86.6677 48.0168 86.7233 47.9751 86.7791 47.9192C86.935 48.1421 87.1551 48.4399 87.439 48.8128C87.723 49.186 88.0403 49.6036 88.3911 50.0656C88.7418 50.5278 89.1094 51.0122 89.4935 51.5188C89.8777 52.0257 90.2535 52.5155 90.621 52.9887C90.9885 53.4621 91.3309 53.8964 91.6482 54.2916C91.9656 54.6867 92.23 55.007 92.4416 55.2521C92.5975 55.43 92.7394 55.5527 92.8677 55.6195C92.9954 55.6863 93.1266 55.7197 93.2601 55.7197C93.4272 55.7197 93.661 55.6722 93.9617 55.5778C94.2624 55.483 94.5907 55.3606 94.9471 55.2103C95.3035 55.06 95.6709 54.8929 96.0496 54.7092C96.428 54.5254 96.7846 54.3443 97.1186 54.1663C97.4527 53.9883 97.745 53.8268 97.9955 53.6819C98.2462 53.5373 98.4216 53.4259 98.5217 53.3478C98.6107 53.281 98.6637 53.2366 98.6805 53.2142C98.6972 53.192 98.7054 53.1586 98.7054 53.114C98.7054 53.0584 98.6805 53.0166 98.6304 52.9887Z" fill="#FF4936"/>
<path d="M82.5087 29.5342L81.9017 29.679C81.6011 29.757 81.409 29.8377 81.3254 29.9212C81.3115 29.9352 81.3004 29.9497 81.2888 29.9641V29.9641C81.2309 30.036 81.2002 30.1133 81.2002 30.1968C81.2002 30.2526 81.2056 30.3053 81.2169 30.3555C81.2279 30.4056 81.2336 30.4586 81.2336 30.5142L79.1289 54.5839C79.1289 54.7953 79.1874 54.9401 79.3043 55.0182C79.4213 55.096 79.5575 55.1351 79.7136 55.1351C79.9028 55.1351 80.0977 55.1017 80.2982 55.0349C80.4986 54.9681 80.6599 54.9122 80.7826 54.8679L83.2309 54.0735L83.5668 50.2457L84.123 43.9069L85.4155 29.1769L85.4456 28.834L82.5087 29.5342Z" fill="white"/>
<path d="M80.7824 54.8678C80.6598 54.9122 80.4984 54.968 80.298 55.0348C80.0975 55.1016 79.9026 55.135 79.7134 55.135C79.5573 55.135 79.4211 55.0959 79.3042 55.0181C79.1873 54.9401 79.1287 54.7952 79.1287 54.5838L81.2334 30.5141C81.2334 30.4585 81.2277 30.4055 81.2167 30.3554C81.2055 30.3053 81.2 30.2526 81.2 30.1967C81.2 30.1133 81.2307 30.0359 81.2886 29.9641V29.9641L78.9322 8.98438L26.6826 15.2524L26.5765 15.3557L29.1562 17.8675L28.277 18.7704L25.6733 16.2352L23.0695 18.7704L22.1903 17.8675L24.6223 15.4996L16.2725 16.5013L14.9382 16.6613L3.91162 17.9841L9.35792 39.9485L10.017 42.6063L18.7665 77.8924L80.6209 83.8161L83.2308 54.0735L80.7824 54.8678Z" fill="#FF4936"/>
<path d="M26.6827 15.2524L29.1563 12.8439L28.2771 11.941L25.6734 14.4762L23.0696 11.941L22.1904 12.8439L24.7701 15.3557L24.6223 15.4996L22.1904 17.8675L23.0696 18.7704L25.6734 16.2352L28.2771 18.7704L29.1563 17.8675L26.5766 15.3557L26.6827 15.2524Z" fill="#A3A29C"/>
<path d="M159.435 67.7317L155.935 64.1116L152.323 67.7235L148.967 64.1277L145.491 67.7234L141.555 63.6508L142.461 62.7748L145.491 65.9101L148.983 62.2979L152.355 65.91L155.95 62.314L159.419 65.9018L162.761 62.3211L166.596 65.9172L169.41 62.7913L170.346 63.6343L166.673 67.7163L162.82 64.1044L159.435 67.7317Z" fill="#FF4936"/>
<path d="M159.435 75.1704L155.935 71.5503L152.323 75.1622L148.967 71.5664L145.491 75.1621L141.555 71.0895L142.461 70.2135L145.491 73.3488L148.983 69.7366L152.355 73.3487L155.95 69.7527L159.419 73.3405L162.761 69.7598L166.596 73.3559L169.41 70.23L170.346 71.073L166.673 75.155L162.82 71.5432L159.435 75.1704Z" fill="#FF4936"/>
<path d="M73.2414 80.3749C70.9067 80.3749 69.0073 78.4755 69.0073 76.1409C69.0073 73.8063 70.9067 71.9069 73.2414 71.9069C75.576 71.9069 77.4755 73.8063 77.4755 76.1409C77.4755 78.4755 75.576 80.3749 73.2414 80.3749ZM73.2414 73.1671C71.6016 73.1671 70.2676 74.5012 70.2676 76.1409C70.2676 77.7806 71.6016 79.1147 73.2414 79.1147C74.8811 79.1147 76.2152 77.7806 76.2152 76.1409C76.2152 74.5012 74.8811 73.1671 73.2414 73.1671Z" fill="white"/>
<path d="M50.4155 36.9115C50.4044 37.8694 50.3125 38.7267 50.14 39.4839C49.9672 40.2413 49.7224 40.9233 49.405 41.5301C49.0876 42.1371 48.7034 42.6826 48.2525 43.167C47.8015 43.6514 47.2863 44.1052 46.7074 44.5283C45.5937 45.3301 44.3744 45.9343 43.0493 46.3406C41.724 46.7473 40.3935 46.9503 39.0572 46.9503C38.8343 46.9503 38.6146 46.9449 38.3974 46.9336C38.1802 46.9227 37.9603 46.9059 37.7376 46.8835L37.1864 52.9803L36.9024 53.4981C36.88 53.5427 36.6908 53.6317 36.3345 53.7653C35.978 53.899 35.5327 54.055 34.9982 54.2331L33.9459 54.5838C33.6118 54.7062 33.3166 54.8177 33.0606 54.9179C32.8043 55.0181 32.565 55.1071 32.3424 55.1851C32.1194 55.2629 31.9023 55.3214 31.6909 55.3605C31.4792 55.3994 31.2566 55.419 31.0228 55.419C30.8667 55.419 30.7443 55.3799 30.6553 55.3021C30.566 55.224 30.5217 55.0737 30.5217 54.851L30.7055 51.9948C30.7388 51.4268 30.7806 50.8563 30.8307 50.2826C30.8808 49.7093 30.928 49.0549 30.9726 48.32L31.2901 44.3279C31.3568 43.5152 31.4179 42.7022 31.4738 41.8891C31.5294 41.0764 31.585 40.3023 31.6408 39.5674C31.6964 38.8324 31.7465 38.1449 31.7912 37.5045C31.8355 36.8643 31.8746 36.3047 31.9081 35.8258C31.3067 35.9594 30.8249 36.057 30.4632 36.1181C30.1012 36.1794 29.8256 36.21 29.6364 36.21C29.4026 36.21 29.2856 36.1098 29.2856 35.9093C29.4414 35.3638 29.5863 34.8293 29.7199 34.3057C29.8423 33.8605 29.9676 33.4012 30.0957 32.9277C30.2236 32.4546 30.3322 32.0565 30.4215 31.7334C30.477 31.533 30.541 31.38 30.6135 31.2741C30.6859 31.1684 30.7806 31.0849 30.8975 31.0235C31.0144 30.9625 31.1647 30.9066 31.3485 30.8565C31.5323 30.8064 31.7577 30.737 32.025 30.6477C32.2364 30.5809 32.5344 30.5057 32.9186 30.4222C33.3028 30.3387 33.7426 30.2551 34.2382 30.1717C34.7336 30.0882 35.2709 30.0075 35.8501 29.9294C36.429 29.8517 37.0165 29.782 37.6123 29.7207C38.2079 29.6596 38.7954 29.6095 39.3745 29.5703C39.9534 29.5314 40.4991 29.5118 41.0114 29.5118C42.2809 29.5118 43.4836 29.6288 44.6194 29.8627C45.7553 30.0965 46.7518 30.4947 47.6094 31.057C48.4667 31.6194 49.1487 32.3765 49.6555 33.3286C50.1621 34.2807 50.4155 35.475 50.4155 36.9115ZM38.2053 41.9225C38.2053 42.0452 38.2275 42.1538 38.2721 42.2483C38.3165 42.343 38.4391 42.3903 38.6396 42.3903C38.9512 42.3903 39.3215 42.3209 39.7504 42.1814C40.1789 42.0424 40.6077 41.8335 41.0365 41.5551C41.4651 41.2769 41.8633 40.9316 42.2309 40.5195C42.5983 40.1076 42.8766 39.6232 43.066 39.0663C43.1438 38.8437 43.208 38.5597 43.2581 38.2144C43.3082 37.8694 43.3333 37.4627 43.3333 36.9951C43.3333 36.2157 43.0632 35.642 42.5231 35.2746C41.9829 34.9071 41.2787 34.7234 40.4102 34.7234C40.2653 34.7234 40.1012 34.7317 39.9174 34.7484C39.7337 34.7651 39.5609 34.7959 39.3996 34.8403C39.238 34.8849 39.1015 34.9379 38.9904 34.999C38.8789 35.0603 38.8176 35.141 38.8067 35.2412L38.7732 35.6086C38.762 35.7535 38.7398 35.9902 38.7064 36.3185C38.673 36.6471 38.6367 37.023 38.5978 37.446C38.5587 37.8694 38.5198 38.3146 38.4809 38.7823C38.4417 39.25 38.4029 39.6955 38.364 40.1186C38.3248 40.5419 38.2914 40.9149 38.2638 41.2377C38.2358 41.5608 38.2162 41.789 38.2053 41.9225Z" fill="white"/>
<path d="M51.8687 47.1842C52.0133 45.6587 52.1582 44.1499 52.303 42.6575C52.4476 41.1654 52.5758 39.6342 52.6872 38.064C52.7094 37.6966 52.7456 37.4434 52.7957 37.304C52.8459 37.1649 52.9712 37.0731 53.1716 37.0284C54.118 36.8392 55.1092 36.6417 56.1448 36.4354C57.1804 36.2295 58.1826 35.9651 59.1514 35.642C59.1849 35.6311 59.235 35.6254 59.3018 35.6254C59.4242 35.6254 59.4855 35.6699 59.4855 35.7589L57.9822 52.0282C57.9488 52.3956 57.9096 52.6491 57.8653 52.7882C57.8207 52.9276 57.6983 53.0194 57.4978 53.0638C56.5512 53.3535 55.5936 53.6764 54.6248 54.0326C53.656 54.3888 52.6314 54.7508 51.5514 55.1183C51.5179 55.1293 51.4678 55.135 51.401 55.135C51.2784 55.135 51.2173 55.0792 51.2173 54.968C51.2173 54.9568 51.2282 54.8064 51.2507 54.517C51.2729 54.2276 51.3034 53.8546 51.3426 53.3979C51.3814 52.9414 51.4232 52.4291 51.4678 51.8612C51.5122 51.2932 51.5597 50.7253 51.6098 50.1574C51.6599 49.5895 51.7072 49.044 51.7518 48.5205C51.7962 47.9971 51.8353 47.5517 51.8687 47.1842ZM53.1215 33.8548C53.1549 33.3761 53.18 33.0086 53.1966 32.7523C53.2134 32.4963 53.2272 32.3042 53.2384 32.1761C53.2494 32.0482 53.2551 31.9672 53.2551 31.9338C53.2551 31.9004 53.2577 31.8754 53.2635 31.8587C53.269 31.842 53.2744 31.8086 53.2802 31.7585C53.2857 31.7083 53.294 31.6027 53.3053 31.4411C53.3162 31.2798 53.3329 31.0431 53.3553 30.7312C53.3775 30.4196 53.4109 29.9907 53.4555 29.445C53.4777 29.0775 53.514 28.8244 53.5642 28.685C53.6142 28.5459 53.7395 28.4541 53.94 28.4094C54.8863 28.2202 55.8776 28.0226 56.9132 27.8164C57.9488 27.6105 58.951 27.3461 59.9198 27.023C59.9532 27.0121 60.0033 27.0063 60.0701 27.0063C60.1036 27.0731 60.1479 27.1178 60.2038 27.1399L60.2539 27.1733L59.8864 31.7501C59.853 32.1176 59.8112 32.3739 59.7611 32.5185C59.711 32.6633 59.5913 32.7523 59.402 32.7857C58.4554 32.964 57.4978 33.159 56.529 33.3704C55.5602 33.582 54.5355 33.7937 53.4555 34.0051C53.4222 34.0163 53.3721 34.0218 53.3053 34.0218C53.1825 34.0218 53.1215 33.9662 53.1215 33.8548Z" fill="white"/>
<path d="M61.3228 46.1151C61.3228 44.6564 61.5926 43.2897 62.1329 42.0145C62.6729 40.7395 63.4191 39.6287 64.3712 38.6821C65.3233 37.7357 66.4479 36.9896 67.7452 36.4438C69.0424 35.8984 70.4539 35.6254 71.9796 35.6254C73.0152 35.6254 73.9006 35.7089 74.6355 35.8759C75.3704 36.0429 75.9718 36.2295 76.4394 36.4355C76.9072 36.6417 77.2496 36.8309 77.4668 37.0034C77.6839 37.1761 77.7924 37.2681 77.7924 37.279C77.7924 37.3458 77.7674 37.5324 77.7173 37.8385C77.6671 38.1449 77.6113 38.5012 77.5502 38.9076C77.4889 39.3142 77.4333 39.7318 77.3832 40.1604C77.3331 40.5892 77.308 40.9595 77.308 41.2712C77.308 41.327 77.2913 41.3881 77.2579 41.4549C77.2245 41.5217 77.1352 41.5551 76.9907 41.5551C76.857 41.5551 76.6621 41.5078 76.406 41.4131C76.1498 41.3187 75.8353 41.2156 75.4623 41.1041C75.0891 40.9929 74.6605 40.8898 74.1761 40.7951C73.6917 40.7006 73.1543 40.6531 72.5642 40.6531C71.8293 40.6531 71.1667 40.7841 70.5765 41.0457C69.9862 41.3074 69.4796 41.6694 69.0565 42.1314C68.6332 42.5936 68.3075 43.1419 68.0793 43.7766C67.851 44.4114 67.737 45.0963 67.737 45.8312C67.737 46.5995 67.8565 47.2538 68.0961 47.7938C68.3354 48.3341 68.6556 48.7739 69.0565 49.1134C69.4574 49.4533 69.9194 49.7009 70.4429 49.8567C70.9662 50.0128 71.5174 50.0906 72.0965 50.0906C72.7647 50.0906 73.4383 49.9987 74.1177 49.815C74.7967 49.6313 75.4372 49.3723 76.0386 49.0383C76.0608 49.0273 76.1053 49.0215 76.1722 49.0215C76.2277 49.0215 76.2695 49.0495 76.2975 49.1051C76.3251 49.161 76.3392 49.2666 76.3392 49.4224C76.3392 49.7789 76.3392 50.2104 76.3392 50.717C76.3392 51.2238 76.3364 51.7082 76.3309 52.1702C76.3251 52.6324 76.3168 53.0249 76.3058 53.3478C76.2946 53.6709 76.2834 53.8322 76.2724 53.8322C75.8715 54.0994 75.4372 54.3166 74.9696 54.4836C74.5018 54.6506 74.02 54.7843 73.5247 54.8845C73.0291 54.9847 72.5309 55.0515 72.0297 55.0849C71.5286 55.1183 71.0442 55.135 70.5765 55.135C69.2736 55.135 68.0598 54.9179 66.9351 54.4836C65.8103 54.0493 64.8331 53.437 64.0037 52.6462C63.174 51.8557 62.5197 50.9065 62.0411 49.7982C61.5621 48.6904 61.3228 47.4627 61.3228 46.1151Z" fill="white"/>
</svg>
